<svg id="Layer_1" data-name="Layer 1" xmlns="http://www.w3.org/2000/svg" viewBox="0 0 283.27 87.13"><defs><style>.cls-1{fill:#fff;}.cls-2{fill:#ee3124;}</style></defs><title>adobe_logo</title><rect width="283.27" height="87.13"/><path class="cls-1" d="M173.86,123.77l-2.66,13.37h-9.8l12.23-55.61h12l11.11,55.61h-9.85l-2.6-13.37Zm9.49-7.83-2-12.06c-.58-3.47-1.33-8.89-1.9-12.65h-.21c-.61,3.78-1.43,9.37-2.05,12.67l-2.19,12Z" transform="translate(-63.36 -63.5)"/><path class="cls-1" d="M229.1,80V125.6c0,3.62.19,8.06.33,11.53h-8.69l-.57-4.64H220a9.67,9.67,0,0,1-8.42,5.3c-8.32,0-12.44-9.16-12.44-20.71,0-14.07,6.15-20.92,12.86-20.92a7.13,7.13,0,0,1,6.92,4.18H219V80ZM219,112.29a13.54,13.54,0,0,0-.15-2.4c-.39-2.75-1.86-5.22-4.21-5.22-4,0-5.53,5.82-5.53,12.6,0,7.81,2.12,12.25,5.38,12.25,1.5,0,3.22-.77,4.16-4a8.22,8.22,0,0,0,.34-2.55Z" transform="translate(-63.36 -63.5)"/><path class="cls-1" d="M249.85,137.8c-9.26,0-15.09-7.43-15.09-20.7,0-14.48,7.46-20.92,15.31-20.92,9.14,0,14.88,7.78,14.88,20.7,0,16.59-9,20.93-15,20.93Zm.19-7.69c3.84,0,4.79-7.21,4.79-13.18,0-5.68-1-13.07-5-13.07-4.25,0-5.14,7.39-5.14,13.07,0,6.84,1.13,13.18,5.22,13.18Z" transform="translate(-63.36 -63.5)"/><path class="cls-1" d="M270.58,80h10.06v21h.16c2-3.11,4.62-4.88,8.45-4.88,7.58,0,11.38,8.59,11.38,19.82,0,14.19-5.68,21.81-13,21.81-3.52,0-5.85-1.56-7.95-5.49h-.21l-.57,4.82h-8.63c.15-3.35.33-7.91.33-11.53Zm10.06,42.7a8.2,8.2,0,0,0,.4,2.57c1,3.38,2.73,4.21,4.09,4.21,3.87,0,5.46-4.91,5.46-12.78,0-7.14-1.66-12.08-5.5-12.08-1.91,0-3.51,2.07-4.06,4.28a10.58,10.58,0,0,0-.38,2.54Z" transform="translate(-63.36 -63.5)"/><path class="cls-1" d="M314.61,120.23c.12,7.28,4,9.65,8.73,9.65a21.18,21.18,0,0,0,7.54-1.39l1.36,7.22a29.46,29.46,0,0,1-10.73,1.87c-10.8,0-16.69-7.35-16.69-19.9,0-13.48,6.84-21.56,15.77-21.56,8.62,0,13.41,7.14,13.41,18.83a36.44,36.44,0,0,1-.29,5.34Zm10.13-7.09c0-5.65-1.61-9.63-4.8-9.63-3.64,0-5.19,5.32-5.31,9.63Z" transform="translate(-63.36 -63.5)"/><polygon class="cls-2" points="61.1 10.87 88.17 10.87 88.17 75.45 61.1 10.87"/><polygon class="cls-2" points="42.03 10.87 14.94 10.87 14.94 75.45 42.03 10.87"/><polygon class="cls-2" points="51.57 34.67 68.82 75.45 57.51 75.45 52.35 62.46 39.73 62.46 51.57 34.67"/><path d="M158.25,74.25a3.43,3.43,0,0,1,0,6.86,3.43,3.43,0,1,1,0-6.86Zm0,.58A2.85,2.85,0,1,0,161,77.68a2.79,2.79,0,0,0-2.74-2.85Zm-.63,4.84h-.69V75.85a7,7,0,0,1,1.15-.11,2,2,0,0,1,1.24.31,1,1,0,0,1,.34.79.92.92,0,0,1-.73.91v0c.34.06.55.37.63.93a3.49,3.49,0,0,0,.23.95h-.7a3,3,0,0,1-.24-1A.7.7,0,0,0,158,78h-.4Zm0-2.15H158c.51,0,.92-.17.92-.61s-.24-.64-.89-.64a3.47,3.47,0,0,0-.44,0Z" transform="translate(-63.36 -63.5)"/></svg>